<mxfile host="app.diagrams.net" agent="Mozilla/5.0 (Windows NT 10.0; Win64; x64) AppleWebKit/537.36 (KHTML, like Gecko) Chrome/141.0.0.0 Safari/537.36" version="28.2.8">
  <diagram name="Trang-1" id="xYIKFBa78LAeweuljyE8">
    <mxGraphModel dx="1042" dy="574" grid="0" gridSize="10" guides="1" tooltips="1" connect="1" arrows="1" fold="1" page="1" pageScale="1" pageWidth="850" pageHeight="1100" math="0" shadow="0">
      <root>
        <mxCell id="0" />
        <mxCell id="1" parent="0" />
        <mxCell id="TTnZEfoAs0i7YUgfxAzY-1" value="&lt;font style=&quot;font-size: 14px;&quot;&gt;Sách&lt;/font&gt;" style="swimlane;fontStyle=1;align=center;verticalAlign=top;childLayout=stackLayout;horizontal=1;startSize=35;horizontalStack=0;resizeParent=1;resizeParentMax=0;resizeLast=0;collapsible=1;marginBottom=0;whiteSpace=wrap;html=1;" vertex="1" parent="1">
          <mxGeometry x="128" y="60" width="247" height="246" as="geometry" />
        </mxCell>
        <mxCell id="TTnZEfoAs0i7YUgfxAzY-2" value="&lt;div&gt;&lt;font style=&quot;font-size: 14px;&quot;&gt;&amp;nbsp;+ maSach: String&lt;/font&gt;&lt;/div&gt;&lt;div&gt;&lt;font style=&quot;font-size: 14px;&quot;&gt;&amp;nbsp;+ tenSach: String&lt;/font&gt;&lt;/div&gt;&lt;div&gt;&lt;font style=&quot;font-size: 14px;&quot;&gt;&amp;nbsp;+ tacGia: String&lt;/font&gt;&lt;/div&gt;&lt;div&gt;&lt;font style=&quot;font-size: 14px;&quot;&gt;&amp;nbsp;+ giaBan: double&lt;/font&gt;&lt;/div&gt;&lt;div&gt;&lt;font style=&quot;font-size: 14px;&quot;&gt;&amp;nbsp;+ soLuong: int&amp;nbsp;&amp;nbsp;&lt;/font&gt;&lt;/div&gt;&lt;div&gt;&lt;span style=&quot;font-size: 14px; background-color: transparent; color: light-dark(rgb(0, 0, 0), rgb(255, 255, 255));&quot;&gt;&amp;nbsp;+ theLoai: String&lt;/span&gt;&lt;/div&gt;" style="text;strokeColor=none;fillColor=none;align=left;verticalAlign=top;spacingLeft=4;spacingRight=4;overflow=hidden;rotatable=0;points=[[0,0.5],[1,0.5]];portConstraint=eastwest;whiteSpace=wrap;html=1;" vertex="1" parent="TTnZEfoAs0i7YUgfxAzY-1">
          <mxGeometry y="35" width="247" height="139" as="geometry" />
        </mxCell>
        <mxCell id="TTnZEfoAs0i7YUgfxAzY-3" value="" style="line;strokeWidth=1;fillColor=none;align=left;verticalAlign=middle;spacingTop=-1;spacingLeft=3;spacingRight=3;rotatable=0;labelPosition=right;points=[];portConstraint=eastwest;strokeColor=inherit;" vertex="1" parent="TTnZEfoAs0i7YUgfxAzY-1">
          <mxGeometry y="174" width="247" height="8" as="geometry" />
        </mxCell>
        <mxCell id="TTnZEfoAs0i7YUgfxAzY-4" value="&lt;div&gt;&lt;font style=&quot;font-size: 14px;&quot;&gt;+ hienThiThongTin()&lt;/font&gt;&lt;/div&gt;&lt;div&gt;&lt;font style=&quot;font-size: 14px;&quot;&gt;+ capNhatGiaMoi()&lt;/font&gt;&lt;/div&gt;&lt;div&gt;&lt;font style=&quot;font-size: 14px;&quot;&gt;+ giamSoLuong()&amp;nbsp;&lt;/font&gt;&lt;/div&gt;" style="text;strokeColor=none;fillColor=none;align=left;verticalAlign=top;spacingLeft=4;spacingRight=4;overflow=hidden;rotatable=0;points=[[0,0.5],[1,0.5]];portConstraint=eastwest;whiteSpace=wrap;html=1;" vertex="1" parent="TTnZEfoAs0i7YUgfxAzY-1">
          <mxGeometry y="182" width="247" height="64" as="geometry" />
        </mxCell>
        <mxCell id="TTnZEfoAs0i7YUgfxAzY-5" value="" style="shape=table;startSize=0;container=1;collapsible=0;childLayout=tableLayout;" vertex="1" parent="1">
          <mxGeometry x="38" y="392" width="759" height="280" as="geometry" />
        </mxCell>
        <mxCell id="TTnZEfoAs0i7YUgfxAzY-6" value="" style="shape=tableRow;horizontal=0;startSize=0;swimlaneHead=0;swimlaneBody=0;strokeColor=inherit;top=0;left=0;bottom=0;right=0;collapsible=0;dropTarget=0;fillColor=none;points=[[0,0.5],[1,0.5]];portConstraint=eastwest;" vertex="1" parent="TTnZEfoAs0i7YUgfxAzY-5">
          <mxGeometry width="759" height="40" as="geometry" />
        </mxCell>
        <mxCell id="TTnZEfoAs0i7YUgfxAzY-7" value="&lt;table class=&quot;w-fit min-w-(--thread-content-width)&quot; data-end=&quot;985&quot; data-start=&quot;571&quot;&gt;&lt;thead data-end=&quot;620&quot; data-start=&quot;571&quot;&gt;&lt;tr data-end=&quot;620&quot; data-start=&quot;571&quot;&gt;&lt;th data-col-size=&quot;sm&quot; data-end=&quot;588&quot; data-start=&quot;571&quot;&gt;&lt;strong data-end=&quot;587&quot; data-start=&quot;573&quot;&gt;Thuộc tính&lt;/strong&gt;&lt;/th&gt;&lt;/tr&gt;&lt;/thead&gt;&lt;/table&gt;" style="shape=partialRectangle;html=1;whiteSpace=wrap;connectable=0;strokeColor=inherit;overflow=hidden;fillColor=none;top=0;left=0;bottom=0;right=0;pointerEvents=1;" vertex="1" parent="TTnZEfoAs0i7YUgfxAzY-6">
          <mxGeometry width="252" height="40" as="geometry">
            <mxRectangle width="252" height="40" as="alternateBounds" />
          </mxGeometry>
        </mxCell>
        <mxCell id="TTnZEfoAs0i7YUgfxAzY-8" value="&lt;table&gt;&lt;tbody&gt;&lt;tr&gt;&lt;th data-col-size=&quot;sm&quot; data-end=&quot;588&quot; data-start=&quot;571&quot;&gt;&lt;strong data-end=&quot;587&quot; data-start=&quot;573&quot;&gt;&lt;/strong&gt;&lt;/th&gt;&lt;/tr&gt;&lt;/tbody&gt;&lt;/table&gt;&lt;table&gt;&lt;tbody&gt;&lt;tr&gt;&lt;th data-col-size=&quot;sm&quot; data-end=&quot;607&quot; data-start=&quot;588&quot;&gt;&lt;strong data-end=&quot;606&quot; data-start=&quot;590&quot;&gt;Kiểu dữ liệu&lt;/strong&gt;&lt;/th&gt;&lt;/tr&gt;&lt;/tbody&gt;&lt;/table&gt;" style="shape=partialRectangle;html=1;whiteSpace=wrap;connectable=0;strokeColor=inherit;overflow=hidden;fillColor=none;top=0;left=0;bottom=0;right=0;pointerEvents=1;" vertex="1" parent="TTnZEfoAs0i7YUgfxAzY-6">
          <mxGeometry x="252" width="255" height="40" as="geometry">
            <mxRectangle width="255" height="40" as="alternateBounds" />
          </mxGeometry>
        </mxCell>
        <mxCell id="TTnZEfoAs0i7YUgfxAzY-9" value="&lt;b&gt;Mô tả&lt;/b&gt;" style="shape=partialRectangle;html=1;whiteSpace=wrap;connectable=0;strokeColor=inherit;overflow=hidden;fillColor=none;top=0;left=0;bottom=0;right=0;pointerEvents=1;" vertex="1" parent="TTnZEfoAs0i7YUgfxAzY-6">
          <mxGeometry x="507" width="252" height="40" as="geometry">
            <mxRectangle width="252" height="40" as="alternateBounds" />
          </mxGeometry>
        </mxCell>
        <mxCell id="TTnZEfoAs0i7YUgfxAzY-10" value="" style="shape=tableRow;horizontal=0;startSize=0;swimlaneHead=0;swimlaneBody=0;strokeColor=inherit;top=0;left=0;bottom=0;right=0;collapsible=0;dropTarget=0;fillColor=none;points=[[0,0.5],[1,0.5]];portConstraint=eastwest;" vertex="1" parent="TTnZEfoAs0i7YUgfxAzY-5">
          <mxGeometry y="40" width="759" height="40" as="geometry" />
        </mxCell>
        <mxCell id="TTnZEfoAs0i7YUgfxAzY-11" value="maSach" style="shape=partialRectangle;html=1;whiteSpace=wrap;connectable=0;strokeColor=inherit;overflow=hidden;fillColor=none;top=0;left=0;bottom=0;right=0;pointerEvents=1;" vertex="1" parent="TTnZEfoAs0i7YUgfxAzY-10">
          <mxGeometry width="252" height="40" as="geometry">
            <mxRectangle width="252" height="40" as="alternateBounds" />
          </mxGeometry>
        </mxCell>
        <mxCell id="TTnZEfoAs0i7YUgfxAzY-12" value="String" style="shape=partialRectangle;html=1;whiteSpace=wrap;connectable=0;strokeColor=inherit;overflow=hidden;fillColor=none;top=0;left=0;bottom=0;right=0;pointerEvents=1;" vertex="1" parent="TTnZEfoAs0i7YUgfxAzY-10">
          <mxGeometry x="252" width="255" height="40" as="geometry">
            <mxRectangle width="255" height="40" as="alternateBounds" />
          </mxGeometry>
        </mxCell>
        <mxCell id="TTnZEfoAs0i7YUgfxAzY-13" value="Mã định danh duy nhất cho mỗi cuốn sách" style="shape=partialRectangle;html=1;whiteSpace=wrap;connectable=0;strokeColor=inherit;overflow=hidden;fillColor=none;top=0;left=0;bottom=0;right=0;pointerEvents=1;" vertex="1" parent="TTnZEfoAs0i7YUgfxAzY-10">
          <mxGeometry x="507" width="252" height="40" as="geometry">
            <mxRectangle width="252" height="40" as="alternateBounds" />
          </mxGeometry>
        </mxCell>
        <mxCell id="TTnZEfoAs0i7YUgfxAzY-14" value="" style="shape=tableRow;horizontal=0;startSize=0;swimlaneHead=0;swimlaneBody=0;strokeColor=inherit;top=0;left=0;bottom=0;right=0;collapsible=0;dropTarget=0;fillColor=none;points=[[0,0.5],[1,0.5]];portConstraint=eastwest;" vertex="1" parent="TTnZEfoAs0i7YUgfxAzY-5">
          <mxGeometry y="80" width="759" height="40" as="geometry" />
        </mxCell>
        <mxCell id="TTnZEfoAs0i7YUgfxAzY-15" value="tenSach" style="shape=partialRectangle;html=1;whiteSpace=wrap;connectable=0;strokeColor=inherit;overflow=hidden;fillColor=none;top=0;left=0;bottom=0;right=0;pointerEvents=1;" vertex="1" parent="TTnZEfoAs0i7YUgfxAzY-14">
          <mxGeometry width="252" height="40" as="geometry">
            <mxRectangle width="252" height="40" as="alternateBounds" />
          </mxGeometry>
        </mxCell>
        <mxCell id="TTnZEfoAs0i7YUgfxAzY-16" value="String" style="shape=partialRectangle;html=1;whiteSpace=wrap;connectable=0;strokeColor=inherit;overflow=hidden;fillColor=none;top=0;left=0;bottom=0;right=0;pointerEvents=1;" vertex="1" parent="TTnZEfoAs0i7YUgfxAzY-14">
          <mxGeometry x="252" width="255" height="40" as="geometry">
            <mxRectangle width="255" height="40" as="alternateBounds" />
          </mxGeometry>
        </mxCell>
        <mxCell id="TTnZEfoAs0i7YUgfxAzY-17" value="Tên của cuốn sách" style="shape=partialRectangle;html=1;whiteSpace=wrap;connectable=0;strokeColor=inherit;overflow=hidden;fillColor=none;top=0;left=0;bottom=0;right=0;pointerEvents=1;" vertex="1" parent="TTnZEfoAs0i7YUgfxAzY-14">
          <mxGeometry x="507" width="252" height="40" as="geometry">
            <mxRectangle width="252" height="40" as="alternateBounds" />
          </mxGeometry>
        </mxCell>
        <mxCell id="TTnZEfoAs0i7YUgfxAzY-18" value="" style="shape=tableRow;horizontal=0;startSize=0;swimlaneHead=0;swimlaneBody=0;strokeColor=inherit;top=0;left=0;bottom=0;right=0;collapsible=0;dropTarget=0;fillColor=none;points=[[0,0.5],[1,0.5]];portConstraint=eastwest;" vertex="1" parent="TTnZEfoAs0i7YUgfxAzY-5">
          <mxGeometry y="120" width="759" height="40" as="geometry" />
        </mxCell>
        <mxCell id="TTnZEfoAs0i7YUgfxAzY-19" value="tacGia" style="shape=partialRectangle;html=1;whiteSpace=wrap;connectable=0;strokeColor=inherit;overflow=hidden;fillColor=none;top=0;left=0;bottom=0;right=0;pointerEvents=1;" vertex="1" parent="TTnZEfoAs0i7YUgfxAzY-18">
          <mxGeometry width="252" height="40" as="geometry">
            <mxRectangle width="252" height="40" as="alternateBounds" />
          </mxGeometry>
        </mxCell>
        <mxCell id="TTnZEfoAs0i7YUgfxAzY-20" value="String" style="shape=partialRectangle;html=1;whiteSpace=wrap;connectable=0;strokeColor=inherit;overflow=hidden;fillColor=none;top=0;left=0;bottom=0;right=0;pointerEvents=1;" vertex="1" parent="TTnZEfoAs0i7YUgfxAzY-18">
          <mxGeometry x="252" width="255" height="40" as="geometry">
            <mxRectangle width="255" height="40" as="alternateBounds" />
          </mxGeometry>
        </mxCell>
        <mxCell id="TTnZEfoAs0i7YUgfxAzY-21" value="Tên tác giả của cuốn sách" style="shape=partialRectangle;html=1;whiteSpace=wrap;connectable=0;strokeColor=inherit;overflow=hidden;fillColor=none;top=0;left=0;bottom=0;right=0;pointerEvents=1;" vertex="1" parent="TTnZEfoAs0i7YUgfxAzY-18">
          <mxGeometry x="507" width="252" height="40" as="geometry">
            <mxRectangle width="252" height="40" as="alternateBounds" />
          </mxGeometry>
        </mxCell>
        <mxCell id="TTnZEfoAs0i7YUgfxAzY-22" value="" style="shape=tableRow;horizontal=0;startSize=0;swimlaneHead=0;swimlaneBody=0;strokeColor=inherit;top=0;left=0;bottom=0;right=0;collapsible=0;dropTarget=0;fillColor=none;points=[[0,0.5],[1,0.5]];portConstraint=eastwest;" vertex="1" parent="TTnZEfoAs0i7YUgfxAzY-5">
          <mxGeometry y="160" width="759" height="40" as="geometry" />
        </mxCell>
        <mxCell id="TTnZEfoAs0i7YUgfxAzY-23" value="giaBan" style="shape=partialRectangle;html=1;whiteSpace=wrap;connectable=0;strokeColor=inherit;overflow=hidden;fillColor=none;top=0;left=0;bottom=0;right=0;pointerEvents=1;" vertex="1" parent="TTnZEfoAs0i7YUgfxAzY-22">
          <mxGeometry width="252" height="40" as="geometry">
            <mxRectangle width="252" height="40" as="alternateBounds" />
          </mxGeometry>
        </mxCell>
        <mxCell id="TTnZEfoAs0i7YUgfxAzY-24" value="double" style="shape=partialRectangle;html=1;whiteSpace=wrap;connectable=0;strokeColor=inherit;overflow=hidden;fillColor=none;top=0;left=0;bottom=0;right=0;pointerEvents=1;" vertex="1" parent="TTnZEfoAs0i7YUgfxAzY-22">
          <mxGeometry x="252" width="255" height="40" as="geometry">
            <mxRectangle width="255" height="40" as="alternateBounds" />
          </mxGeometry>
        </mxCell>
        <mxCell id="TTnZEfoAs0i7YUgfxAzY-25" value="Giá bán hiện tại của sách" style="shape=partialRectangle;html=1;whiteSpace=wrap;connectable=0;strokeColor=inherit;overflow=hidden;fillColor=none;top=0;left=0;bottom=0;right=0;pointerEvents=1;" vertex="1" parent="TTnZEfoAs0i7YUgfxAzY-22">
          <mxGeometry x="507" width="252" height="40" as="geometry">
            <mxRectangle width="252" height="40" as="alternateBounds" />
          </mxGeometry>
        </mxCell>
        <mxCell id="TTnZEfoAs0i7YUgfxAzY-26" value="" style="shape=tableRow;horizontal=0;startSize=0;swimlaneHead=0;swimlaneBody=0;strokeColor=inherit;top=0;left=0;bottom=0;right=0;collapsible=0;dropTarget=0;fillColor=none;points=[[0,0.5],[1,0.5]];portConstraint=eastwest;" vertex="1" parent="TTnZEfoAs0i7YUgfxAzY-5">
          <mxGeometry y="200" width="759" height="40" as="geometry" />
        </mxCell>
        <mxCell id="TTnZEfoAs0i7YUgfxAzY-27" value="soLuong" style="shape=partialRectangle;html=1;whiteSpace=wrap;connectable=0;strokeColor=inherit;overflow=hidden;fillColor=none;top=0;left=0;bottom=0;right=0;pointerEvents=1;" vertex="1" parent="TTnZEfoAs0i7YUgfxAzY-26">
          <mxGeometry width="252" height="40" as="geometry">
            <mxRectangle width="252" height="40" as="alternateBounds" />
          </mxGeometry>
        </mxCell>
        <mxCell id="TTnZEfoAs0i7YUgfxAzY-28" value="int" style="shape=partialRectangle;html=1;whiteSpace=wrap;connectable=0;strokeColor=inherit;overflow=hidden;fillColor=none;top=0;left=0;bottom=0;right=0;pointerEvents=1;" vertex="1" parent="TTnZEfoAs0i7YUgfxAzY-26">
          <mxGeometry x="252" width="255" height="40" as="geometry">
            <mxRectangle width="255" height="40" as="alternateBounds" />
          </mxGeometry>
        </mxCell>
        <mxCell id="TTnZEfoAs0i7YUgfxAzY-29" value="Số lượng sách còn trong kho" style="shape=partialRectangle;html=1;whiteSpace=wrap;connectable=0;strokeColor=inherit;overflow=hidden;fillColor=none;top=0;left=0;bottom=0;right=0;pointerEvents=1;" vertex="1" parent="TTnZEfoAs0i7YUgfxAzY-26">
          <mxGeometry x="507" width="252" height="40" as="geometry">
            <mxRectangle width="252" height="40" as="alternateBounds" />
          </mxGeometry>
        </mxCell>
        <mxCell id="TTnZEfoAs0i7YUgfxAzY-30" value="" style="shape=tableRow;horizontal=0;startSize=0;swimlaneHead=0;swimlaneBody=0;strokeColor=inherit;top=0;left=0;bottom=0;right=0;collapsible=0;dropTarget=0;fillColor=none;points=[[0,0.5],[1,0.5]];portConstraint=eastwest;" vertex="1" parent="TTnZEfoAs0i7YUgfxAzY-5">
          <mxGeometry y="240" width="759" height="40" as="geometry" />
        </mxCell>
        <mxCell id="TTnZEfoAs0i7YUgfxAzY-31" value="theLoai" style="shape=partialRectangle;html=1;whiteSpace=wrap;connectable=0;strokeColor=inherit;overflow=hidden;fillColor=none;top=0;left=0;bottom=0;right=0;pointerEvents=1;" vertex="1" parent="TTnZEfoAs0i7YUgfxAzY-30">
          <mxGeometry width="252" height="40" as="geometry">
            <mxRectangle width="252" height="40" as="alternateBounds" />
          </mxGeometry>
        </mxCell>
        <mxCell id="TTnZEfoAs0i7YUgfxAzY-32" value="String" style="shape=partialRectangle;html=1;whiteSpace=wrap;connectable=0;strokeColor=inherit;overflow=hidden;fillColor=none;top=0;left=0;bottom=0;right=0;pointerEvents=1;" vertex="1" parent="TTnZEfoAs0i7YUgfxAzY-30">
          <mxGeometry x="252" width="255" height="40" as="geometry">
            <mxRectangle width="255" height="40" as="alternateBounds" />
          </mxGeometry>
        </mxCell>
        <mxCell id="TTnZEfoAs0i7YUgfxAzY-33" value="Thể loại hoặc danh mục của sách" style="shape=partialRectangle;html=1;whiteSpace=wrap;connectable=0;strokeColor=inherit;overflow=hidden;fillColor=none;top=0;left=0;bottom=0;right=0;pointerEvents=1;" vertex="1" parent="TTnZEfoAs0i7YUgfxAzY-30">
          <mxGeometry x="507" width="252" height="40" as="geometry">
            <mxRectangle width="252" height="40" as="alternateBounds" />
          </mxGeometry>
        </mxCell>
      </root>
    </mxGraphModel>
  </diagram>
</mxfile>
